<?xml version="1.0" encoding="UTF-8" standalone="no"?><svg xmlns="http://www.w3.org/2000/svg" xmlns:xlink="http://www.w3.org/1999/xlink" contentScriptType="application/ecmascript" contentStyleType="text/css" height="126px" preserveAspectRatio="none" style="width:295px;height:126px;" version="1.1" viewBox="0 0 295 126" width="295px" zoomAndPan="magnify"><defs><filter height="300%" id="fai1vrm2b5tve" width="300%" x="-1" y="-1"><feGaussianBlur result="blurOut" stdDeviation="2.0"/><feColorMatrix in="blurOut" result="blurOut2" type="matrix" values="0 0 0 0 0 0 0 0 0 0 0 0 0 0 0 0 0 0 .4 0"/><feOffset dx="4.0" dy="4.0" in="blurOut2" result="blurOut3"/><feBlend in="SourceGraphic" in2="blurOut3" mode="normal"/></filter></defs><g><!--MD5=[8a25d51a9d8e9865cf896b72de78a5da]
class ioc--><polygon fill="#DDEEE8" filter="url(#fai1vrm2b5tve)" points="74.5,8,74.5,8.2102,84.5,7.5857,94.5,8.1933,104.5,8.3997,114.5,7.2866,124.5,7.9223,134.5,7.5735,144.5,7.6165,154.5,7.9318,164.5,7.3086,174.5,8.5536,184.5,7.3697,194.5,7.8022,204.5,8.4319,214.5,7.9142,224.5,8.0682,234.5,8,234.4894,8,234.5595,12.7938,234.5797,17.5875,234.6952,22.3813,234.7237,27.175,234.5,31.9688,234.5,32.648,224.5,32.2234,214.5,32.4323,204.5,32.671,194.5,31.2476,184.5,32.6473,174.5,31.6722,164.5,32.5026,154.5,31.4737,144.5,31.9003,134.5,32.7104,124.5,31.92,114.5,32.0741,104.5,32.3074,94.5,32.385,84.5,31.9648,74.5,31.9688,74.5957,31.9688,74.3092,27.175,74.5948,22.3813,74.6827,17.5875,74.6482,12.7938,74.5,8" style="stroke: #225C4D; stroke-width: 1.5;"/><text fill="#000000" font-family="sans-serif" font-size="12" lengthAdjust="spacingAndGlyphs" textLength="154" x="77.5" y="24.1387">Inversion of Control (IoC)</text><!--MD5=[3e8755ac2c43b2db06f6d8895da1c13c]
class di--><polygon fill="#DDEEE8" filter="url(#fai1vrm2b5tve)" points="6,92,6,92.2102,16.0714,91.5857,26.1429,92.1933,36.2143,92.3997,46.2857,91.2866,56.3571,91.9223,66.4286,91.5735,76.5,91.6165,86.5714,91.9318,96.6429,91.3086,106.7143,92.5536,116.7857,91.3697,126.8571,91.8022,136.9286,92.4319,147,92,146.9714,92,147.0227,96.7938,146.9894,101.5875,147.0595,106.3813,147.0797,111.175,147,115.9688,147,116.5544,136.9286,116.6398,126.8571,116.648,116.7857,116.2234,106.7143,116.4323,96.6429,116.671,86.5714,115.2476,76.5,116.6473,66.4286,115.6722,56.3571,116.5026,46.2857,115.4737,36.2143,115.9003,26.1429,116.7104,16.0714,115.92,6,115.9688,6.0351,115.9688,6.1129,111.175,6.1387,106.3813,5.9987,101.5875,6.0957,96.7938,6,92" style="stroke: #225C4D; stroke-width: 1.5;"/><text fill="#000000" font-family="sans-serif" font-size="12" lengthAdjust="spacingAndGlyphs" textLength="135" x="9" y="108.1387">Dependency Injection</text><!--MD5=[e5ed2fcbff96bd03a55f8cf01186b818]
class sl--><polygon fill="#DDEEE8" filter="url(#fai1vrm2b5tve)" points="182.5,92,182.5,92.2102,192.7,91.5857,202.9,92.1933,213.1,92.3997,223.3,91.2866,233.5,91.9223,243.7,91.5735,253.9,91.6165,264.1,91.9318,274.3,91.3086,284.5,92,284.6845,92,284.2899,96.7938,284.4341,101.5875,284.644,106.3813,284.4714,111.175,284.5,115.9688,284.5,116.037,274.3,115.9368,264.1,116.1473,253.9,116.2079,243.7,116.5544,233.5,116.6398,223.3,116.648,213.1,116.2234,202.9,116.4323,192.7,116.671,182.5,115.9688,182.2596,115.9688,182.7262,111.175,182.4012,106.3813,182.6779,101.5875,182.335,96.7938,182.5,92" style="stroke: #225C4D; stroke-width: 1.5;"/><text fill="#000000" font-family="sans-serif" font-size="12" lengthAdjust="spacingAndGlyphs" textLength="96" x="185.5" y="108.1387">Service Locator</text><!--MD5=[d5f572bafff20cb0d66b859cc61ef9ca]
reverse link ioc to di--><path d="M130,46.76 L130.203,46.9532 L122.4498,53.8942 L115.8867,61.9676 L108.9361,69.6723 L100.7109,76.1643 L94.1749,84.2636 L87.1,91.85 " fill="none" style="stroke: #225C4D; stroke-width: 1.0;"/><polygon fill="none" points="125.12,41.73,125.152,41.7923,128.829,39.6731,132.6934,37.9193,136.4968,36.0466,140.0995,33.7824,143.98,32.06,143.9564,32.0493,142.1084,35.8635,140.3795,39.7314,138.7333,43.6367,136.8019,47.4132,135.27,51.37,135.3971,51.5038,133.0953,49.2897,131.1646,47.4662,129.2792,45.6904,127.1303,43.6373,125.12,41.73" style="stroke: #225C4D; stroke-width: 1.0;"/><!--MD5=[3d4b81fa70c3652d68f8dedbb12180e5]
reverse link ioc to sl--><path d="M179.32,46.76 L179.5218,46.9544 L186.1622,53.8917 L193.9856,61.9688 L201.4238,69.6747 L207.595,76.1601 L215.4454,84.2631 L222.76,91.85 " fill="none" style="stroke: #225C4D; stroke-width: 1.0;"/><polygon fill="none" points="173.99,51.32,174.0537,51.3492,172.0965,47.4104,170.5126,43.6429,168.8071,39.8196,166.7019,35.8128,165.15,32.06,165.1383,32.0369,168.8699,33.8431,172.6604,35.7659,176.4918,37.7697,180.1822,39.4943,184.07,41.61,184.198,41.7429,181.9082,43.4007,179.9923,45.4465,178.1219,47.5397,175.9862,49.3574,173.99,51.32" style="stroke: #225C4D; stroke-width: 1.0;"/><!--MD5=[50727c3d8d32060226c11a03a881cb09]
@startuml
skinparam class {
 BackgroundColor #DDEEE8
 BorderColor #225C4D
 ArrowColor #225C4D
 }
skinparam handwritten true

class "Inversion of Control (IoC)" as ioc
class "Dependency Injection" as di
class "Service Locator" as sl

ioc <|- - di
ioc <|- - sl

hide members
hide circle
@enduml

PlantUML version 1.2019.12(Sun Nov 03 11:24:54 CET 2019)
(APACHE source distribution)
Java Runtime: OpenJDK Runtime Environment
JVM: OpenJDK 64-Bit Server VM
Java Version: 17.0.4+8-Ubuntu-122.04
Operating System: Linux
Default Encoding: UTF-8
Language: de
Country: DE
--></g></svg>