<?xml version="1.0" encoding="UTF-8" standalone="no"?>
<svg xmlns="http://www.w3.org/2000/svg" xmlns:xlink="http://www.w3.org/1999/xlink" contentScriptType="application/ecmascript" contentStyleType="text/css"
     style="fill: #266cb4" version="1.1" x="0" y="0" width="96" height="60" viewBox="0 0 91.6 60"
     xml:space="preserve"><path class="st0" d="M6.5 3C2.4 5.9 0.3 9.3 0.3 13.5v18.4c0 1.9 1.1 4.2 3.4 6.8C5 39.9 6 40.7 6.9 41.3c1.5 0.8 2.5 1.3 3 1.5 1.3 0.7 5 1 10.9 1 1.8 0 4.2-0.1 7.2-0.2 1.6 0 3-0.4 4.2-1.3 1.8-1.2 3.5-2.8 5.3-5.1 1.1-1.4 2.3-3.8 3.5-7.3 0.5-1.6 0.8-2.4 0.8-2.4h6.4l4.4-11.1c0-0.1 0-0.1-0.1-0.1h-6.2c0.7-2.9 1.8-4.3 3.5-4.3h5.1v18.4c0 1.7 0.4 3.6 1.3 5.5 2.8 5.5 8.5 8.2 17.1 8.2 8 0 13.5-2.6 16.4-7.8 0.7-1.4 1.2-3 1.5-4.7 0.2-0.8 0.2-4 0.2-9.5v-8.5l0-12.8h0l0 0H79.6l-0.1 0.1v27.2c0 3-1.8 4.5-5.5 4.5h-0.9c-2.5 0-4.1-0.5-5-1.5 -0.7-0.7-1.1-2.1-1.1-4.5V0.7L67 0.6H49.6c-2.6 0-5.1 0.5-7.4 1.6 -1 0.4-2.1 1.3-3.3 2.5 -1.5 1.7-3.1 4.8-4.9 9.2 -0.4 1.2-0.7 1.8-0.7 1.9h-9L24.3 16v11.2l0.1 0.1h4.1v0.2c0 1.6-0.4 2.7-1.2 3.6 -0.4 0.6-1.4 0.9-2.9 0.9H15c-0.2 0-0.5-0.1-0.8-0.2 -0.8-0.4-1.4-1.2-1.7-2.1 -0.3-0.3-0.5-1.9-0.5-4.9v-0.5l0-9.4c0-0.3 0.1-0.6 0.2-1 0.8-1.5 2.1-2.3 3.9-2.3h15l0 0 0-7V0.1L31 0H14.3C11.9 0.2 9.3 1.3 6.5 3"></path><path class="st0" d="M9.1 56.8c-0.4 0.2-1 0.3-1.7 0.5 -0.7 0.2-1.4 0.2-2.1 0.2 -1.6 0-2.9-0.4-3.9-1.3C0.5 55.3 0 54.1 0 52.5c0-1.5 0.5-2.7 1.4-3.6 0.9-0.9 2.2-1.4 3.9-1.4 0.6 0 1.2 0.1 1.8 0.2 0.6 0.1 1.2 0.3 1.9 0.7v2.3H8.8c-0.1-0.1-0.3-0.2-0.5-0.4C8 50 7.8 49.9 7.6 49.8c-0.3-0.1-0.5-0.3-0.9-0.4 -0.3-0.1-0.7-0.1-1.1-0.1 -0.4 0-0.8 0.1-1.2 0.2 -0.4 0.1-0.7 0.3-1 0.6 -0.3 0.3-0.5 0.6-0.6 1 -0.2 0.4-0.2 0.9-0.2 1.4 0 1.1 0.3 1.9 0.9 2.5C4 55.5 4.8 55.7 6 55.7c0.1 0 0.2 0 0.3 0 0.1 0 0.2 0 0.3 0v-1.9H4.7V52h4.5V56.8z"></path><path class="st0" d="M17.6 49.5h-4.4v1.8h4.1v1.9h-4.1v4.1h-2.5v-9.7h6.9V49.5z"></path><path class="st0" d="M27 53.8c0 1.2-0.4 2.1-1.1 2.7 -0.7 0.6-1.8 1-3.2 1 -1.4 0-2.5-0.3-3.2-1 -0.7-0.6-1.1-1.5-1.1-2.7v-6.2h2.5v6c0 0.7 0.1 1.2 0.4 1.5 0.3 0.3 0.7 0.5 1.4 0.5 0.6 0 1.1-0.2 1.4-0.5 0.3-0.3 0.4-0.8 0.4-1.5v-6H27V53.8z"></path><path class="st0" d="M36.1 57.5c-0.7 0-1.4-0.1-2-0.3 -0.6-0.2-1.1-0.5-1.6-0.9 -0.4-0.4-0.8-0.9-1-1.6 -0.2-0.6-0.4-1.4-0.4-2.2 0-0.8 0.1-1.5 0.3-2.1 0.2-0.6 0.6-1.2 1-1.6 0.4-0.4 0.9-0.8 1.6-1 0.6-0.2 1.3-0.4 2-0.4 0.4 0 0.8 0 1.1 0.1 0.3 0 0.6 0.1 0.9 0.2 0.3 0.1 0.6 0.2 0.8 0.3 0.2 0.1 0.4 0.2 0.6 0.3v2.3h-0.3c-0.1-0.1-0.3-0.2-0.5-0.4 -0.2-0.1-0.4-0.3-0.6-0.4 -0.2-0.1-0.5-0.3-0.8-0.3 -0.3-0.1-0.6-0.1-0.9-0.1 -0.4 0-0.7 0.1-1 0.2 -0.3 0.1-0.6 0.3-0.9 0.5 -0.3 0.2-0.5 0.6-0.6 1 -0.2 0.4-0.2 0.9-0.2 1.5 0 0.6 0.1 1.1 0.3 1.5 0.2 0.4 0.4 0.7 0.6 1 0.3 0.2 0.6 0.4 0.9 0.5 0.3 0.1 0.6 0.2 1 0.2 0.3 0 0.6 0 0.9-0.1 0.3-0.1 0.6-0.2 0.8-0.4 0.2-0.1 0.4-0.3 0.6-0.4 0.2-0.1 0.3-0.3 0.4-0.4h0.3v2.3c-0.2 0.1-0.5 0.2-0.7 0.3 -0.2 0.1-0.5 0.2-0.7 0.2 -0.3 0.1-0.6 0.2-0.9 0.2C37 57.5 36.6 57.5 36.1 57.5z"></path><path class="st0" d="M44.1 54.7l1.7-4.7h2.4l-4.1 10h-2.5l1.2-2.7L39.9 50h2.5L44.1 54.7z"></path><path class="st0" d="M53.9 52.3h-0.2c-0.1 0-0.3-0.1-0.5-0.1 -0.2 0-0.4 0-0.5 0 -0.3 0-0.6 0-0.9 0.1 -0.3 0-0.5 0.1-0.8 0.2v4.9h-2.3V50H51v1.1c0.5-0.4 1-0.7 1.3-0.9 0.4-0.1 0.7-0.2 1-0.2 0.1 0 0.2 0 0.3 0 0.1 0 0.2 0 0.3 0V52.3z"></path><path class="st0" d="M61.8 57.3h-2.3v-0.8c-0.4 0.3-0.8 0.6-1.2 0.7 -0.4 0.2-0.8 0.3-1.3 0.3 -0.8 0-1.4-0.2-1.9-0.7 -0.4-0.5-0.7-1.1-0.7-2.1V50h2.3v3.6c0 0.4 0 0.7 0 0.9 0 0.2 0.1 0.4 0.2 0.6 0.1 0.2 0.2 0.3 0.4 0.4 0.2 0.1 0.4 0.1 0.7 0.1 0.2 0 0.4 0 0.7-0.1 0.2-0.1 0.5-0.2 0.7-0.3V50h2.3V57.3z"></path><path class="st0" d="M69.6 55c0 0.8-0.3 1.4-1 1.8 -0.7 0.5-1.6 0.7-2.8 0.7 -0.6 0-1.2-0.1-1.8-0.2 -0.5-0.1-1-0.3-1.3-0.4V55H63c0.1 0.1 0.3 0.2 0.4 0.3 0.2 0.1 0.4 0.2 0.7 0.3 0.2 0.1 0.5 0.2 0.8 0.3 0.3 0.1 0.6 0.1 1 0.1 0.5 0 0.8-0.1 1-0.2 0.2-0.1 0.3-0.3 0.3-0.5 0-0.2-0.1-0.3-0.2-0.4 -0.1-0.1-0.4-0.2-0.7-0.2 -0.2 0-0.4-0.1-0.7-0.1 -0.3 0-0.6-0.1-0.8-0.2 -0.7-0.2-1.2-0.4-1.5-0.8 -0.3-0.4-0.5-0.8-0.5-1.4 0-0.7 0.3-1.3 1-1.8 0.7-0.5 1.6-0.7 2.7-0.7 0.5 0 1.1 0.1 1.6 0.2 0.5 0.1 0.9 0.2 1.2 0.4v1.8h-0.2c-0.3-0.2-0.7-0.4-1.2-0.6 -0.4-0.1-0.9-0.2-1.3-0.2 -0.4 0-0.7 0.1-1 0.2 -0.3 0.1-0.4 0.3-0.4 0.4 0 0.2 0.1 0.3 0.2 0.4 0.1 0.1 0.4 0.2 0.8 0.3 0.2 0 0.5 0.1 0.8 0.1 0.3 0 0.5 0.1 0.8 0.2 0.6 0.2 1.1 0.4 1.4 0.8C69.5 54.1 69.6 54.5 69.6 55z"></path><path class="st0" d="M82.7 57.3h-2.6l-0.7-2h-3.6l-0.7 2h-2.5l3.6-9.7h2.9L82.7 57.3zM78.8 53.6l-1.2-3.5 -1.2 3.5H78.8z"></path><path class="st0" d="M91.6 56.8c-0.4 0.2-1 0.3-1.7 0.5 -0.7 0.2-1.4 0.2-2.1 0.2 -1.6 0-2.9-0.4-3.9-1.3 -0.9-0.9-1.4-2.1-1.4-3.7 0-1.5 0.5-2.7 1.4-3.6 0.9-0.9 2.2-1.4 3.9-1.4 0.6 0 1.2 0.1 1.8 0.2 0.6 0.1 1.2 0.3 1.9 0.7v2.3h-0.3c-0.1-0.1-0.3-0.2-0.5-0.4 -0.2-0.2-0.5-0.3-0.7-0.4 -0.3-0.1-0.5-0.3-0.9-0.4 -0.3-0.1-0.7-0.1-1.1-0.1 -0.4 0-0.8 0.1-1.2 0.2 -0.4 0.1-0.7 0.3-1 0.6 -0.3 0.3-0.5 0.6-0.6 1 -0.2 0.4-0.2 0.9-0.2 1.4 0 1.1 0.3 1.9 0.9 2.5 0.6 0.6 1.4 0.9 2.5 0.9 0.1 0 0.2 0 0.3 0 0.1 0 0.2 0 0.3 0v-1.9h-1.9V52h4.5V56.8z"></path>
</svg>